{"glyphs":{"0":{"ha":1200,"x_min":44,"x_max":1156,"o":"m 600 0 q 384 44 485 0 q 208 163 283 88 q 88 340 132 239 q 44 556 44 440 q 88 771 44 669 q 208 948 132 872 q 384 1067 283 1024 q 600 1111 485 1111 q 815 1067 714 1111 q 992 948 917 1024 q 1112 771 1068 872 q 1156 556 1156 669 q 1112 340 1156 440 q 992 163 1068 239 q 815 44 917 88 q 600 0 714 0 m 600 833 q 490 811 542 833 q 401 751 439 789 q 342 663 364 714 q 319 556 319 613 q 342 446 319 497 q 401 357 364 394 q 490 297 439 319 q 600 275 542 275 q 708 297 657 275 q 796 357 758 319 q 856 446 833 394 q 878 556 878 497 q 856 663 878 613 q 796 751 833 714 q 708 811 758 789 q 600 833 657 833 z "},"1":{"ha":403,"x_min":65,"x_max":339,"o":"m 339 0 l 65 0 l 65 1111 l 339 1111 l 339 0 z "},"2":{"ha":1033,"x_min":49,"x_max":992,"o":"m 688 0 l 394 0 q 260 27 324 0 q 150 101 197 54 q 76 212 103 149 q 49 346 49 275 q 76 481 49 418 q 150 592 103 544 q 260 666 197 639 q 394 693 324 693 l 646 693 q 696 714 675 693 q 717 764 717 735 q 696 815 717 794 q 646 836 675 836 l 144 836 l 144 1111 l 646 1111 q 780 1084 717 1111 q 890 1010 843 1057 q 965 899 938 963 q 992 764 992 836 q 965 630 992 693 q 890 519 938 567 q 780 445 843 472 q 646 418 717 418 l 394 418 q 344 397 365 418 q 324 346 324 376 q 344 296 324 317 q 394 275 365 275 l 963 275 l 688 0 z "},"3":{"ha":906,"x_min":65,"x_max":853,"o":"m 78 693 l 507 693 q 557 714 536 693 q 578 764 578 735 q 557 815 578 794 q 507 836 536 836 l 65 836 l 65 1111 l 507 1111 q 642 1084 579 1111 q 751 1010 704 1057 q 826 899 799 963 q 853 764 853 836 q 834 653 853 706 q 783 556 815 600 q 834 458 815 511 q 853 346 853 406 q 826 212 853 275 q 751 101 799 149 q 642 27 704 54 q 507 0 579 0 l 65 0 l 65 275 l 507 275 q 557 296 536 275 q 578 346 578 317 q 557 397 578 376 q 507 418 536 418 l 353 418 l 78 693 z "},"4":{"ha":950,"x_min":22,"x_max":885,"o":"m 885 1111 l 885 0 l 610 0 l 610 375 l 414 375 q 261 409 332 375 q 137 503 190 443 q 53 642 83 563 q 22 811 22 721 l 22 1111 l 296 1111 l 296 811 q 306 749 296 778 q 331 697 315 719 q 369 662 347 675 q 414 649 390 649 l 610 649 l 610 1111 l 885 1111 z "},"5":{"ha":1003,"x_min":47,"x_max":961,"o":"m 322 0 l 47 275 l 615 275 q 665 296 644 275 q 686 346 686 317 q 665 396 686 376 q 650 406 660 401 q 624 410 640 410 l 275 410 q 186 430 228 410 q 114 484 144 450 q 65 564 83 518 q 47 663 47 610 l 47 776 q 74 907 47 846 q 145 1013 100 968 q 251 1085 190 1058 q 381 1111 311 1111 l 794 1111 l 794 836 l 381 836 q 340 819 357 836 q 322 776 322 801 l 322 685 l 631 685 q 751 663 693 685 q 854 596 808 640 q 933 483 906 547 q 961 346 961 418 q 934 212 961 275 q 860 101 907 149 q 749 27 813 54 q 615 0 686 0 l 322 0 z "},"6":{"ha":1058,"x_min":53,"x_max":1024,"o":"m 388 0 q 260 28 321 0 q 154 103 200 56 q 81 213 108 150 q 53 346 53 275 l 53 653 q 89 831 53 747 q 187 976 125 914 q 332 1075 249 1039 q 510 1111 415 1111 l 719 1111 l 719 836 l 510 836 q 444 824 475 836 q 390 791 414 813 q 349 741 365 769 q 329 679 333 713 q 365 683 347 682 q 403 685 383 685 l 690 685 q 812 662 754 685 q 917 596 869 639 q 996 482 968 547 q 1024 346 1024 417 q 995 213 1024 276 q 920 103 967 150 q 813 28 874 56 q 690 0 753 0 l 388 0 m 678 275 q 729 296 708 275 q 750 346 750 317 q 729 394 750 376 q 713 406 722 401 q 688 410 703 410 l 385 410 q 363 405 371 410 q 347 394 354 400 q 328 346 328 375 q 347 297 328 318 q 394 275 367 275 l 678 275 z "},"7":{"ha":1028,"x_min":24,"x_max":999,"o":"m 299 836 l 24 1111 l 999 1111 l 628 0 l 339 0 l 617 836 l 299 836 z "},"8":{"ha":975,"x_min":47,"x_max":928,"o":"m 536 1111 q 662 1083 601 1111 q 768 1008 722 1056 q 842 898 814 961 q 869 765 869 835 q 857 674 869 718 q 822 593 844 631 q 899 482 871 546 q 928 344 928 418 q 902 214 928 275 q 832 106 876 153 q 728 32 788 60 q 600 0 668 4 l 392 0 q 258 27 321 0 q 148 101 194 54 q 74 210 101 147 q 47 344 47 274 q 74 480 47 417 q 150 590 101 543 q 114 673 126 629 q 101 765 101 717 q 128 899 101 836 q 202 1010 156 963 q 312 1084 249 1057 q 446 1111 375 1111 l 536 1111 m 446 838 q 396 817 417 838 q 375 765 375 796 q 396 715 375 736 q 446 694 417 694 l 524 694 q 574 715 554 694 q 594 765 594 736 q 574 817 594 796 q 524 838 554 838 l 446 838 m 583 274 q 633 294 613 274 q 654 344 654 315 q 633 394 654 374 q 583 415 613 415 l 392 415 q 342 394 363 415 q 321 344 321 374 q 342 294 321 315 q 392 274 363 274 l 583 274 z "},"9":{"ha":928,"x_min":24,"x_max":871,"o":"m 871 0 l 594 0 l 594 290 q 447 264 522 264 q 283 297 360 264 q 148 388 206 331 q 57 522 90 444 q 24 688 24 600 q 57 852 24 775 q 148 987 90 929 q 283 1078 206 1044 q 447 1111 360 1111 q 610 1078 533 1111 q 743 990 686 1046 q 834 858 800 933 q 871 696 868 782 l 871 0 m 447 540 q 504 552 478 540 q 551 583 531 564 q 583 630 571 603 q 594 688 594 657 q 583 744 594 718 q 551 790 571 771 q 504 822 531 810 q 447 833 478 833 q 390 822 417 833 q 344 790 364 810 q 312 744 324 771 q 300 688 300 718 q 312 630 300 657 q 344 583 324 603 q 390 552 364 564 q 447 540 417 540 z "}," ":{"ha":328,"x_min":0,"x_max":0,"o":""},"E":{"ha":1144,"x_min":11,"x_max":1128,"o":"m 369 697 l 814 697 q 713 802 778 763 q 569 842 649 842 q 460 819 511 842 q 369 758 408 797 q 308 668 331 719 q 286 558 286 617 q 308 449 286 500 q 369 358 331 397 q 460 297 408 319 q 569 275 511 275 l 1000 275 l 722 0 l 569 0 q 352 44 454 0 q 174 163 250 88 q 55 341 99 239 q 11 558 11 443 q 55 776 11 674 q 174 953 99 878 q 352 1073 250 1029 q 569 1117 454 1117 q 787 1073 685 1117 q 965 953 889 1029 q 1084 776 1040 878 q 1128 558 1128 674 l 1128 422 l 647 422 l 369 697 z "},"F":{"ha":818,"x_min":24,"x_max":882,"o":"m 721 703 l 443 428 l 299 428 l 299 0 l 24 0 l 24 589 q 64 789 24 694 q 174 953 104 883 q 339 1065 244 1024 q 540 1106 433 1106 q 723 1072 635 1106 q 882 978 811 1039 l 699 769 q 540 831 629 831 q 415 795 471 831 q 329 703 358 760 l 443 703 l 721 703 z "},"G":{"ha":1146,"x_min":19,"x_max":1131,"o":"m 1131 692 l 1131 556 q 1087 340 1131 440 q 967 163 1043 239 q 790 44 892 88 q 575 0 689 0 q 359 44 460 0 q 183 163 258 88 q 63 340 107 239 q 19 556 19 440 q 63 771 19 669 q 183 948 107 872 q 359 1067 258 1024 q 575 1111 460 1111 l 728 1111 l 1003 836 l 575 836 q 465 814 517 836 q 376 754 414 792 q 317 665 339 717 q 294 556 294 614 q 317 446 294 497 q 376 357 339 394 q 465 297 414 319 q 575 275 517 275 q 719 315 654 275 q 819 417 783 354 l 378 417 l 653 692 l 1131 692 z "},"H":{"ha":1081,"x_min":25,"x_max":1053,"o":"m 1053 1111 l 1053 0 l 781 0 l 781 417 l 300 417 l 300 0 l 25 0 l 25 839 l 300 1111 l 300 692 l 781 692 l 781 1111 l 1053 1111 z "},"I":{"ha":335,"x_min":28,"x_max":303,"o":"m 303 1111 l 303 0 l 28 0 l 28 839 l 303 1111 z "},"J":{"ha":892,"x_min":3,"x_max":869,"o":"m 869 1111 l 869 519 q 828 318 869 413 q 717 153 788 224 q 551 41 646 82 q 350 0 457 0 q 161 35 250 0 q 3 133 72 71 l 197 328 q 350 275 263 275 q 446 294 401 275 q 524 346 490 313 q 576 424 557 379 q 594 519 594 468 l 594 1111 l 869 1111 z "},"K":{"ha":969,"x_min":28,"x_max":947,"o":"m 731 722 q 888 542 829 651 q 947 297 947 432 l 947 6 l 672 6 l 672 297 q 655 391 672 347 q 608 467 638 435 q 538 517 578 499 q 453 536 497 536 q 303 472 367 536 l 303 0 l 28 0 l 28 1111 l 303 1111 l 303 839 l 839 1067 l 947 814 l 731 722 l 731 722 z "},"L":{"ha":556,"x_min":18,"x_max":546,"o":"m 546 275 l 546 0 l 435 0 q 290 34 364 0 q 155 126 215 68 q 56 264 94 185 q 18 433 18 343 l 18 947 l 293 1222 l 293 433 q 310 372 293 401 q 349 322 326 343 q 396 288 372 300 q 435 275 419 275 l 546 275 z "},"M":{"ha":1381,"x_min":25,"x_max":1356,"o":"m 953 1111 q 1110 1079 1036 1111 q 1238 993 1183 1047 q 1324 866 1292 939 q 1356 711 1356 793 l 1356 0 l 1081 0 l 1081 711 q 1043 800 1081 764 q 953 836 1006 836 q 863 800 900 836 q 825 711 825 764 l 825 0 l 553 0 l 553 711 q 515 800 553 764 q 425 836 478 836 q 335 800 372 836 q 297 711 297 764 l 297 0 l 25 0 l 25 711 q 57 866 25 793 q 143 993 89 939 q 270 1079 197 1047 q 425 1111 343 1111 q 569 1084 503 1111 q 689 1011 636 1057 q 810 1084 743 1057 q 953 1111 878 1111 z "},"N":{"ha":1069,"x_min":22,"x_max":1047,"o":"m 1047 0 l 775 0 l 775 597 q 756 691 775 647 q 705 767 738 735 q 628 817 672 799 q 536 836 585 836 q 442 817 486 836 q 365 767 399 799 q 313 691 332 735 q 294 597 294 647 l 294 0 l 22 0 l 22 597 q 63 797 22 703 q 173 960 103 890 q 336 1071 243 1031 q 536 1111 429 1111 q 735 1071 642 1111 q 898 960 829 1031 q 1007 797 967 890 q 1047 597 1047 703 l 1047 0 z "},"O":{"ha":1147,"x_min":18,"x_max":1129,"o":"m 574 0 q 358 44 458 0 q 181 163 257 88 q 62 340 106 239 q 18 556 18 440 q 62 771 18 669 q 181 948 106 872 q 358 1067 257 1024 q 574 1111 458 1111 q 789 1067 688 1111 q 966 948 890 1024 q 1085 771 1042 872 q 1129 556 1129 669 q 1085 340 1129 440 q 966 163 1042 239 q 789 44 890 88 q 574 0 688 0 m 574 833 q 464 811 515 833 q 375 751 413 789 q 315 663 338 714 q 293 556 293 613 q 315 446 293 497 q 375 357 338 394 q 464 297 413 319 q 574 275 515 275 q 681 297 631 275 q 769 357 732 319 q 829 446 807 394 q 851 556 851 497 q 829 663 851 613 q 769 751 807 714 q 681 811 732 789 q 574 833 631 833 z "},"P":{"ha":1033,"x_min":22,"x_max":1019,"o":"m 522 1111 q 716 1072 625 1111 q 874 964 807 1032 q 981 805 942 896 q 1019 611 1019 714 q 981 417 1019 508 q 874 259 942 326 q 716 153 807 192 q 522 114 625 114 q 404 128 461 114 q 297 167 347 142 l 297 0 l 22 0 l 22 611 q 61 805 22 714 q 168 964 100 896 q 327 1072 236 1032 q 522 1111 418 1111 m 522 386 q 608 404 568 386 q 679 453 649 422 q 727 524 710 483 q 744 611 744 565 q 727 699 744 658 q 679 771 710 740 q 608 819 649 801 q 522 836 568 836 q 434 819 475 836 q 363 771 393 801 q 315 699 332 740 q 297 611 297 658 q 315 524 297 565 q 363 453 332 483 q 434 404 393 422 q 522 386 475 386 z "},"Q":{"ha":1143,"x_min":15,"x_max":1124,"o":"m 1124 556 q 1094 376 1124 461 q 1013 222 1065 292 l 1115 119 l 921 -75 l 796 50 q 568 0 692 0 q 352 44 453 0 q 176 163 251 88 q 58 340 101 239 q 15 556 15 440 q 58 770 15 669 q 176 946 101 871 q 352 1065 251 1021 q 568 1108 453 1108 q 785 1065 683 1108 q 961 946 886 1021 q 1080 770 1036 871 q 1124 556 1124 669 m 290 556 q 313 446 290 497 q 372 357 335 394 q 460 297 410 319 q 568 275 511 275 l 474 372 l 668 567 l 815 422 q 840 485 831 451 q 849 556 849 518 q 826 663 849 613 q 767 751 804 714 q 678 811 729 789 q 568 833 626 833 q 460 811 511 833 q 372 751 410 789 q 313 663 335 714 q 290 556 290 613 z "},"R":{"ha":721,"x_min":21,"x_max":851,"o":"m 640 831 q 614 835 628 835 q 585 836 600 836 q 472 813 525 836 q 380 751 419 790 q 317 658 340 711 q 293 544 293 604 l 293 0 l 21 0 l 21 544 q 65 765 21 663 q 186 945 110 868 q 365 1067 263 1022 q 585 1111 468 1111 q 723 1094 656 1111 q 851 1044 790 1076 l 640 831 l 640 831 z "},"S":{"ha":958,"x_min":17,"x_max":958,"o":"m 319 0 l 44 278 l 611 278 q 662 298 640 278 q 683 347 683 318 q 662 397 683 376 q 611 417 640 417 l 361 417 q 228 444 290 417 q 118 518 165 471 q 44 628 71 565 q 17 764 17 692 q 44 898 17 835 q 118 1008 71 961 q 228 1083 165 1056 q 361 1111 290 1111 l 653 1111 l 653 833 l 361 833 q 312 813 332 833 q 292 764 292 793 q 312 713 292 735 q 361 692 332 692 l 611 692 q 747 665 683 692 q 857 590 810 638 q 931 481 904 543 q 958 347 958 418 q 931 212 958 275 q 857 101 904 149 q 747 27 810 54 q 611 0 683 0 l 319 0 z "},"T":{"ha":708,"x_min":-81,"x_max":878,"o":"m 603 836 l 461 836 l 461 0 l 186 0 l 186 836 l -81 836 l -81 1111 l 878 1111 l 603 836 z "},"U":{"ha":1072,"x_min":11,"x_max":1050,"o":"m 1050 1111 l 1050 519 q 1009 318 1050 413 q 897 153 968 224 q 732 41 826 82 q 531 0 638 0 q 329 41 424 0 q 164 153 235 82 q 52 318 93 224 q 11 519 11 413 l 11 631 l 289 908 l 289 519 q 308 426 289 469 q 360 349 326 382 q 437 297 393 315 q 531 278 481 278 q 624 297 581 278 q 701 349 668 315 q 753 426 735 382 q 772 519 772 469 l 772 1111 l 1050 1111 z "},"V":{"ha":865,"x_min":-82,"x_max":979,"o":"m 979 1111 l 368 0 l -82 900 l 124 1106 l 379 594 l 663 1111 l 979 1111 z "},"W":{"ha":1381,"x_min":25,"x_max":1356,"o":"m 425 0 q 270 32 343 0 q 143 118 197 64 q 57 245 89 172 q 25 400 25 318 l 25 1111 l 297 1111 l 297 400 q 335 310 297 347 q 425 272 372 272 q 515 310 478 272 q 553 400 553 347 l 553 1111 l 825 1111 l 825 400 q 863 310 825 347 q 953 272 900 272 q 1043 310 1006 272 q 1081 400 1081 347 l 1081 1111 l 1356 1111 l 1356 400 q 1324 245 1356 318 q 1238 118 1292 172 q 1110 32 1183 64 q 953 0 1036 0 q 810 27 878 0 q 689 100 743 54 q 569 27 636 54 q 425 0 503 0 z "},"X":{"ha":956,"x_min":-69,"x_max":1025,"o":"m 639 611 l 1025 0 l 700 0 l 478 356 l 256 0 l -69 0 l 314 611 l 3 1111 l 325 1111 l 478 869 l 628 1111 l 953 1111 l 639 611 z "},"Y":{"ha":738,"x_min":-115,"x_max":825,"o":"m 825 1110 l 496 572 l 496 0 l 224 0 l 224 572 l -115 1111 l 210 1111 l 360 869 l 510 1111 l 825 1110 z "},"Z":{"ha":1021,"x_min":-46,"x_max":1068,"o":"m -46 0 l 540 836 l 171 836 l 446 1111 l 1068 1111 l 482 275 l 901 275 l 626 0 l -46 0 z "},"‰":{"ha":1157,"x_min":35,"x_max":72,"o":"m 72 138 q 53 119 72 119 q 35 138 35 119 q 53 157 35 157 q 72 138 72 157 z "},"B":{"ha":1139,"x_min":15,"x_max":1124,"o":"m 571 1108 q 785 1065 685 1108 q 961 945 886 1021 q 1080 768 1036 869 q 1124 553 1124 667 q 1080 337 1124 438 q 961 161 1036 236 q 785 43 886 86 q 568 0 683 0 q 352 43 453 0 q 176 161 251 86 q 58 337 101 236 q 15 553 15 438 l 15 1222 l 290 1222 l 290 553 q 313 445 290 496 q 372 357 335 394 q 460 297 410 319 q 568 275 511 275 q 678 297 626 275 q 767 357 729 319 q 826 445 804 394 q 849 553 849 496 q 826 663 849 611 q 767 751 804 714 q 678 811 729 789 q 568 833 626 833 l 293 833 l 571 1108 l 571 1108 z "},"C":{"ha":865,"x_min":18,"x_max":968,"o":"m 574 0 q 358 44 458 0 q 181 163 257 88 q 62 340 106 239 q 18 556 18 440 q 62 773 18 671 q 181 951 106 875 q 358 1070 257 1026 q 574 1114 458 1114 q 788 1072 686 1114 q 968 950 889 1029 l 774 756 q 682 816 733 796 q 574 836 631 836 q 465 814 517 836 q 376 754 414 792 q 315 665 338 717 q 293 556 293 614 q 315 446 293 497 q 376 357 338 394 q 465 297 414 319 q 574 275 517 275 q 682 297 631 275 q 774 358 733 318 l 968 164 q 788 42 889 85 q 574 0 686 0 z "},"A":{"ha":1135,"x_min":10,"x_max":1118,"o":"m 563 1111 q 779 1067 678 1111 q 956 948 881 1024 q 1074 771 1031 872 q 1118 556 1118 669 l 1118 0 l 843 0 l 843 556 q 821 663 843 613 q 761 751 799 714 q 672 811 724 789 q 563 833 621 833 q 455 811 506 833 q 367 751 404 789 q 307 663 329 714 q 285 556 285 613 q 307 448 285 499 q 367 360 329 397 q 455 300 404 322 q 563 278 506 278 l 840 278 l 563 0 q 347 45 447 1 q 171 164 246 89 q 53 340 96 239 q 10 556 10 440 q 53 771 10 669 q 171 948 96 872 q 347 1067 246 1024 q 563 1111 447 1111 z "},"ˇ":{"ha":1157,"x_min":0,"x_max":0,"o":""},"ﬁ":{"ha":0,"x_min":0,"x_max":0,"o":""},"ﬂ":{"ha":0,"x_min":0,"x_max":0,"o":""},"D":{"ha":1150,"x_min":17,"x_max":1125,"o":"m 1125 1222 l 1125 553 q 1081 337 1125 438 q 963 161 1038 236 q 786 43 888 86 q 569 0 685 0 q 353 43 454 0 q 178 161 253 86 q 60 337 103 236 q 17 553 17 438 q 60 768 17 667 q 178 945 103 869 q 353 1065 253 1021 q 569 1108 454 1108 l 847 833 l 569 833 q 462 811 513 833 q 374 751 411 789 q 314 663 336 714 q 292 553 292 611 q 314 445 292 496 q 374 357 336 394 q 462 297 411 319 q 569 275 513 275 q 679 297 628 275 q 768 357 731 319 q 828 445 806 394 q 850 553 850 496 l 850 1222 l 1125 1222 z "},"a":{"ha":1135,"x_min":10,"x_max":1118,"o":"m 563 1111 q 779 1067 678 1111 q 956 948 881 1024 q 1074 771 1031 872 q 1118 556 1118 669 l 1118 0 l 843 0 l 843 556 q 821 663 843 613 q 761 751 799 714 q 672 811 724 789 q 563 833 621 833 q 455 811 506 833 q 367 751 404 789 q 307 663 329 714 q 285 556 285 613 q 307 448 285 499 q 367 360 329 397 q 455 300 404 322 q 563 278 506 278 l 840 278 l 563 0 q 347 45 447 1 q 171 164 246 89 q 53 340 96 239 q 10 556 10 440 q 53 771 10 669 q 171 948 96 872 q 347 1067 246 1024 q 563 1111 447 1111 z "},"b":{"ha":1139,"x_min":15,"x_max":1124,"o":"m 571 1108 q 785 1065 685 1108 q 961 945 886 1021 q 1080 768 1036 869 q 1124 553 1124 667 q 1080 337 1124 438 q 961 161 1036 236 q 785 43 886 86 q 568 0 683 0 q 352 43 453 0 q 176 161 251 86 q 58 337 101 236 q 15 553 15 438 l 15 1222 l 290 1222 l 290 553 q 313 445 290 496 q 372 357 335 394 q 460 297 410 319 q 568 275 511 275 q 678 297 626 275 q 767 357 729 319 q 826 445 804 394 q 849 553 849 496 q 826 663 849 611 q 767 751 804 714 q 678 811 729 789 q 568 833 626 833 l 293 833 l 571 1108 l 571 1108 z "},"c":{"ha":865,"x_min":18,"x_max":968,"o":"m 574 0 q 358 44 458 0 q 181 163 257 88 q 62 340 106 239 q 18 556 18 440 q 62 773 18 671 q 181 951 106 875 q 358 1070 257 1026 q 574 1114 458 1114 q 788 1072 686 1114 q 968 950 889 1029 l 774 756 q 682 816 733 796 q 574 836 631 836 q 465 814 517 836 q 376 754 414 792 q 315 665 338 717 q 293 556 293 614 q 315 446 293 497 q 376 357 338 394 q 465 297 414 319 q 574 275 517 275 q 682 297 631 275 q 774 358 733 318 l 968 164 q 788 42 889 85 q 574 0 686 0 z "},"d":{"ha":1150,"x_min":17,"x_max":1125,"o":"m 1125 1222 l 1125 553 q 1081 337 1125 438 q 963 161 1038 236 q 786 43 888 86 q 569 0 685 0 q 353 43 454 0 q 178 161 253 86 q 60 337 103 236 q 17 553 17 438 q 60 768 17 667 q 178 945 103 869 q 353 1065 253 1021 q 569 1108 454 1108 l 847 833 l 569 833 q 462 811 513 833 q 374 751 411 789 q 314 663 336 714 q 292 553 292 611 q 314 445 292 496 q 374 357 336 394 q 462 297 411 319 q 569 275 513 275 q 679 297 628 275 q 768 357 731 319 q 828 445 806 394 q 850 553 850 496 l 850 1222 l 1125 1222 z "},"e":{"ha":1144,"x_min":11,"x_max":1128,"o":"m 369 697 l 814 697 q 713 802 778 763 q 569 842 649 842 q 460 819 511 842 q 369 758 408 797 q 308 668 331 719 q 286 558 286 617 q 308 449 286 500 q 369 358 331 397 q 460 297 408 319 q 569 275 511 275 l 1000 275 l 722 0 l 569 0 q 352 44 454 0 q 174 163 250 88 q 55 341 99 239 q 11 558 11 443 q 55 776 11 674 q 174 953 99 878 q 352 1073 250 1029 q 569 1117 454 1117 q 787 1073 685 1117 q 965 953 889 1029 q 1084 776 1040 878 q 1128 558 1128 674 l 1128 422 l 647 422 l 369 697 z "},"f":{"ha":818,"x_min":24,"x_max":882,"o":"m 721 703 l 443 428 l 299 428 l 299 0 l 24 0 l 24 589 q 64 789 24 694 q 174 953 104 883 q 339 1065 244 1024 q 540 1106 433 1106 q 723 1072 635 1106 q 882 978 811 1039 l 699 769 q 540 831 629 831 q 415 795 471 831 q 329 703 358 760 l 443 703 l 721 703 z "},"g":{"ha":1146,"x_min":19,"x_max":1131,"o":"m 1131 692 l 1131 556 q 1087 340 1131 440 q 967 163 1043 239 q 790 44 892 88 q 575 0 689 0 q 359 44 460 0 q 183 163 258 88 q 63 340 107 239 q 19 556 19 440 q 63 771 19 669 q 183 948 107 872 q 359 1067 258 1024 q 575 1111 460 1111 l 728 1111 l 1003 836 l 575 836 q 465 814 517 836 q 376 754 414 792 q 317 665 339 717 q 294 556 294 614 q 317 446 294 497 q 376 357 339 394 q 465 297 414 319 q 575 275 517 275 q 719 315 654 275 q 819 417 783 354 l 378 417 l 653 692 l 1131 692 z "},"h":{"ha":1081,"x_min":25,"x_max":1053,"o":"m 1053 1111 l 1053 0 l 781 0 l 781 417 l 300 417 l 300 0 l 25 0 l 25 839 l 300 1111 l 300 692 l 781 692 l 781 1111 l 1053 1111 z "},"i":{"ha":335,"x_min":28,"x_max":303,"o":"m 303 1111 l 303 0 l 28 0 l 28 839 l 303 1111 z "},"j":{"ha":892,"x_min":3,"x_max":869,"o":"m 869 1111 l 869 519 q 828 318 869 413 q 717 153 788 224 q 551 41 646 82 q 350 0 457 0 q 161 35 250 0 q 3 133 72 71 l 197 328 q 350 275 263 275 q 446 294 401 275 q 524 346 490 313 q 576 424 557 379 q 594 519 594 468 l 594 1111 l 869 1111 z "},"k":{"ha":969,"x_min":28,"x_max":947,"o":"m 731 722 q 888 542 829 651 q 947 297 947 432 l 947 6 l 672 6 l 672 297 q 655 391 672 347 q 608 467 638 435 q 538 517 578 499 q 453 536 497 536 q 303 472 367 536 l 303 0 l 28 0 l 28 1111 l 303 1111 l 303 839 l 839 1067 l 947 814 l 731 722 l 731 722 z "},"l":{"ha":556,"x_min":18,"x_max":546,"o":"m 546 275 l 546 0 l 435 0 q 290 34 364 0 q 155 126 215 68 q 56 264 94 185 q 18 433 18 343 l 18 947 l 293 1222 l 293 433 q 310 372 293 401 q 349 322 326 343 q 396 288 372 300 q 435 275 419 275 l 546 275 z "},"m":{"ha":1381,"x_min":25,"x_max":1356,"o":"m 953 1111 q 1110 1079 1036 1111 q 1238 993 1183 1047 q 1324 866 1292 939 q 1356 711 1356 793 l 1356 0 l 1081 0 l 1081 711 q 1043 800 1081 764 q 953 836 1006 836 q 863 800 900 836 q 825 711 825 764 l 825 0 l 553 0 l 553 711 q 515 800 553 764 q 425 836 478 836 q 335 800 372 836 q 297 711 297 764 l 297 0 l 25 0 l 25 711 q 57 866 25 793 q 143 993 89 939 q 270 1079 197 1047 q 425 1111 343 1111 q 569 1084 503 1111 q 689 1011 636 1057 q 810 1084 743 1057 q 953 1111 878 1111 z "},"n":{"ha":1069,"x_min":22,"x_max":1047,"o":"m 1047 0 l 775 0 l 775 597 q 756 691 775 647 q 705 767 738 735 q 628 817 672 799 q 536 836 585 836 q 442 817 486 836 q 365 767 399 799 q 313 691 332 735 q 294 597 294 647 l 294 0 l 22 0 l 22 597 q 63 797 22 703 q 173 960 103 890 q 336 1071 243 1031 q 536 1111 429 1111 q 735 1071 642 1111 q 898 960 829 1031 q 1007 797 967 890 q 1047 597 1047 703 l 1047 0 z "},"o":{"ha":1147,"x_min":18,"x_max":1129,"o":"m 574 0 q 358 44 458 0 q 181 163 257 88 q 62 340 106 239 q 18 556 18 440 q 62 771 18 669 q 181 948 106 872 q 358 1067 257 1024 q 574 1111 458 1111 q 789 1067 688 1111 q 966 948 890 1024 q 1085 771 1042 872 q 1129 556 1129 669 q 1085 340 1129 440 q 966 163 1042 239 q 789 44 890 88 q 574 0 688 0 m 574 833 q 464 811 515 833 q 375 751 413 789 q 315 663 338 714 q 293 556 293 613 q 315 446 293 497 q 375 357 338 394 q 464 297 413 319 q 574 275 515 275 q 681 297 631 275 q 769 357 732 319 q 829 446 807 394 q 851 556 851 497 q 829 663 851 613 q 769 751 807 714 q 681 811 732 789 q 574 833 631 833 z "},"p":{"ha":1033,"x_min":22,"x_max":1019,"o":"m 522 1111 q 716 1072 625 1111 q 874 964 807 1032 q 981 805 942 896 q 1019 611 1019 714 q 981 417 1019 508 q 874 259 942 326 q 716 153 807 192 q 522 114 625 114 q 404 128 461 114 q 297 167 347 142 l 297 0 l 22 0 l 22 611 q 61 805 22 714 q 168 964 100 896 q 327 1072 236 1032 q 522 1111 418 1111 m 522 386 q 608 404 568 386 q 679 453 649 422 q 727 524 710 483 q 744 611 744 565 q 727 699 744 658 q 679 771 710 740 q 608 819 649 801 q 522 836 568 836 q 434 819 475 836 q 363 771 393 801 q 315 699 332 740 q 297 611 297 658 q 315 524 297 565 q 363 453 332 483 q 434 404 393 422 q 522 386 475 386 z "},"q":{"ha":1143,"x_min":15,"x_max":1124,"o":"m 1124 556 q 1094 376 1124 461 q 1013 222 1065 292 l 1115 119 l 921 -75 l 796 50 q 568 0 692 0 q 352 44 453 0 q 176 163 251 88 q 58 340 101 239 q 15 556 15 440 q 58 770 15 669 q 176 946 101 871 q 352 1065 251 1021 q 568 1108 453 1108 q 785 1065 683 1108 q 961 946 886 1021 q 1080 770 1036 871 q 1124 556 1124 669 m 290 556 q 313 446 290 497 q 372 357 335 394 q 460 297 410 319 q 568 275 511 275 l 474 372 l 668 567 l 815 422 q 840 485 831 451 q 849 556 849 518 q 826 663 849 613 q 767 751 804 714 q 678 811 729 789 q 568 833 626 833 q 460 811 511 833 q 372 751 410 789 q 313 663 335 714 q 290 556 290 613 z "},"r":{"ha":721,"x_min":21,"x_max":851,"o":"m 640 831 q 614 835 628 835 q 585 836 600 836 q 472 813 525 836 q 380 751 419 790 q 317 658 340 711 q 293 544 293 604 l 293 0 l 21 0 l 21 544 q 65 765 21 663 q 186 945 110 868 q 365 1067 263 1022 q 585 1111 468 1111 q 723 1094 656 1111 q 851 1044 790 1076 l 640 831 l 640 831 z "},"s":{"ha":958,"x_min":17,"x_max":958,"o":"m 319 0 l 44 278 l 611 278 q 662 298 640 278 q 683 347 683 318 q 662 397 683 376 q 611 417 640 417 l 361 417 q 228 444 290 417 q 118 518 165 471 q 44 628 71 565 q 17 764 17 692 q 44 898 17 835 q 118 1008 71 961 q 228 1083 165 1056 q 361 1111 290 1111 l 653 1111 l 653 833 l 361 833 q 312 813 332 833 q 292 764 292 793 q 312 713 292 735 q 361 692 332 692 l 611 692 q 747 665 683 692 q 857 590 810 638 q 931 481 904 543 q 958 347 958 418 q 931 212 958 275 q 857 101 904 149 q 747 27 810 54 q 611 0 683 0 l 319 0 z "},"t":{"ha":708,"x_min":-81,"x_max":878,"o":"m 603 836 l 461 836 l 461 0 l 186 0 l 186 836 l -81 836 l -81 1111 l 878 1111 l 603 836 z "},"u":{"ha":1072,"x_min":11,"x_max":1050,"o":"m 1050 1111 l 1050 519 q 1009 318 1050 413 q 897 153 968 224 q 732 41 826 82 q 531 0 638 0 q 329 41 424 0 q 164 153 235 82 q 52 318 93 224 q 11 519 11 413 l 11 631 l 289 908 l 289 519 q 308 426 289 469 q 360 349 326 382 q 437 297 393 315 q 531 278 481 278 q 624 297 581 278 q 701 349 668 315 q 753 426 735 382 q 772 519 772 469 l 772 1111 l 1050 1111 z "},"v":{"ha":865,"x_min":-82,"x_max":979,"o":"m 979 1111 l 368 0 l -82 900 l 124 1106 l 379 594 l 663 1111 l 979 1111 z "},"w":{"ha":1381,"x_min":25,"x_max":1356,"o":"m 425 0 q 270 32 343 0 q 143 118 197 64 q 57 245 89 172 q 25 400 25 318 l 25 1111 l 297 1111 l 297 400 q 335 310 297 347 q 425 272 372 272 q 515 310 478 272 q 553 400 553 347 l 553 1111 l 825 1111 l 825 400 q 863 310 825 347 q 953 272 900 272 q 1043 310 1006 272 q 1081 400 1081 347 l 1081 1111 l 1356 1111 l 1356 400 q 1324 245 1356 318 q 1238 118 1292 172 q 1110 32 1183 64 q 953 0 1036 0 q 810 27 878 0 q 689 100 743 54 q 569 27 636 54 q 425 0 503 0 z "},"x":{"ha":956,"x_min":-69,"x_max":1025,"o":"m 639 611 l 1025 0 l 700 0 l 478 356 l 256 0 l -69 0 l 314 611 l 3 1111 l 325 1111 l 478 869 l 628 1111 l 953 1111 l 639 611 z "},"y":{"ha":738,"x_min":-115,"x_max":825,"o":"m 825 1110 l 496 572 l 496 0 l 224 0 l 224 572 l -115 1111 l 210 1111 l 360 869 l 510 1111 l 825 1110 z "},"z":{"ha":1021,"x_min":-46,"x_max":1068,"o":"m -46 0 l 540 836 l 171 836 l 446 1111 l 1068 1111 l 482 275 l 901 275 l 626 0 l -46 0 z "},"|":{"ha":236,"x_min":39,"x_max":199,"o":"m 199 0 l 39 0 l 39 1111 l 199 1111 l 199 0 z "},"\"":{"ha":635,"x_min":39,"x_max":621,"o":"m 349 839 l 349 1111 l 621 1111 l 349 839 m 39 839 l 39 1111 l 311 1111 l 39 839 z "},"“":{"ha":635,"x_min":39,"x_max":621,"o":"m 349 839 l 349 1111 l 621 1111 l 349 839 m 39 839 l 39 1111 l 311 1111 l 39 839 z "},"”":{"ha":635,"x_min":14,"x_max":596,"o":"m 14 1111 l 286 1111 l 286 839 l 14 1111 m 324 1111 l 596 1111 l 596 839 l 324 1111 z "},"‘":{"ha":311,"x_min":39,"x_max":311,"o":"m 39 839 l 39 1111 l 311 1111 l 39 839 z "},"’":{"ha":310,"x_min":0,"x_max":272,"o":"m 0 1111 l 272 1111 l 272 839 l 0 1111 z "},"÷":{"ha":1157,"x_min":0,"x_max":0,"o":""},"$":{"ha":824,"x_min":18,"x_max":807,"o":"m 526 658 q 635 636 585 658 q 724 576 686 614 q 785 487 763 538 q 807 378 807 436 q 785 268 807 319 q 724 179 763 217 q 635 119 686 142 q 526 97 585 97 l 447 97 l 447 0 l 349 0 l 349 97 l 261 97 l 79 279 l 349 279 l 349 476 l 299 476 q 190 499 240 476 q 101 559 139 521 q 40 648 63 597 q 18 757 18 699 q 40 866 18 815 q 101 955 63 917 q 190 1015 139 993 q 299 1038 240 1038 l 349 1038 l 349 1111 l 447 1111 l 447 1038 l 624 1038 l 624 856 l 447 856 l 447 658 l 526 658 m 349 658 l 349 856 l 299 856 q 229 826 258 856 q 200 757 200 797 q 229 688 200 717 q 299 658 258 658 l 349 658 m 526 279 q 596 308 567 279 q 625 378 625 336 q 596 447 625 418 q 526 476 567 476 l 447 476 l 447 279 l 526 279 z "},"%":{"ha":1131,"x_min":32,"x_max":1099,"o":"m 829 1111 l 54 0 l 318 0 l 1092 1111 l 829 1111 m 265 646 q 174 664 217 646 q 100 714 132 682 q 50 788 68 746 q 32 879 32 831 q 50 969 32 926 q 100 1044 68 1013 q 174 1094 132 1075 q 265 1113 217 1113 q 355 1094 313 1113 q 429 1044 397 1075 q 479 969 461 1013 q 497 879 497 926 q 479 788 497 831 q 429 714 461 746 q 355 664 397 682 q 265 646 313 646 m 265 957 q 210 934 233 957 q 188 879 188 911 q 210 824 188 847 q 265 801 233 801 q 319 824 297 801 q 342 879 342 847 q 319 934 342 911 q 265 957 297 957 m 867 0 q 776 18 818 0 q 701 68 733 36 q 651 142 669 100 q 633 233 633 185 q 651 323 633 281 q 701 397 669 365 q 776 447 733 429 q 867 465 818 465 q 956 447 914 465 q 1031 397 999 429 q 1081 323 1063 365 q 1099 233 1099 281 q 1081 142 1099 185 q 1031 68 1063 100 q 956 18 999 36 q 867 0 914 0 m 867 310 q 812 288 835 310 q 789 233 789 265 q 812 178 789 201 q 867 156 835 156 q 921 178 899 156 q 943 233 943 201 q 921 288 943 265 q 867 310 899 310 z "},"&":{"ha":832,"x_min":29,"x_max":819,"o":"m 722 356 l 724 347 q 697 212 724 275 q 622 101 669 149 q 512 27 575 54 q 376 0 449 0 q 241 27 304 0 q 131 101 178 54 q 56 212 83 149 q 29 347 29 275 q 58 485 29 421 q 135 596 86 549 q 81 688 100 636 q 63 797 63 739 q 87 919 63 861 q 154 1019 111 976 q 254 1086 197 1061 q 376 1111 311 1111 q 558 1053 476 1111 l 435 878 q 376 896 411 896 q 306 867 336 896 q 276 797 276 838 q 306 726 276 756 q 376 697 336 697 l 593 697 q 467 572 511 615 q 403 507 424 528 l 375 479 q 324 469 347 479 q 282 440 300 458 q 253 398 264 422 q 243 347 243 374 q 282 253 243 292 q 376 215 321 215 q 453 240 419 215 q 500 301 486 264 l 425 283 l 379 474 l 774 568 l 819 378 l 722 356 z "},"(":{"ha":372,"x_min":22,"x_max":350,"o":"m 300 1040 q 269 966 282 1004 q 246 888 257 928 q 215 727 225 808 q 206 561 206 646 q 217 399 206 479 q 253 239 229 318 q 278 160 264 199 q 310 83 292 122 q 327 46 318 64 q 346 8 336 28 l 350 0 l 194 0 l 185 14 q 136 97 158 54 q 96 183 114 139 q 22 563 22 364 q 37 753 22 658 q 86 939 51 847 q 174 1111 119 1029 l 338 1111 q 300 1040 317 1078 z "},")":{"ha":371,"x_min":22,"x_max":350,"o":"m 72 1040 q 35 1111 56 1078 l 200 1111 q 248 1028 226 1071 q 286 939 269 985 q 335 753 321 847 q 350 563 350 658 q 276 183 350 364 q 236 97 258 139 q 188 14 214 54 q 183 7 185 11 q 178 0 181 3 l 22 0 l 26 8 q 45 46 36 28 q 63 83 54 64 q 94 160 81 122 q 119 239 108 199 q 155 399 143 318 q 167 561 167 479 q 158 727 167 646 q 128 888 149 808 q 103 966 117 928 q 72 1040 90 1004 z "},"#":{"ha":1588,"x_min":19,"x_max":1568,"o":"m 1568 1111 l 1375 835 l 1483 835 l 1483 619 l 1224 619 l 1114 461 l 1483 461 l 1483 246 l 964 246 l 792 0 l 529 0 l 700 246 l 454 246 l 282 0 l 19 0 l 190 246 l 92 246 l 92 461 l 342 461 l 451 619 l 92 619 l 92 835 l 603 835 l 796 1111 l 1058 1111 l 865 835 l 1113 835 l 1304 1111 l 1568 1111 m 961 619 l 715 619 l 606 461 l 851 461 l 961 619 z "},"*":{"ha":496,"x_min":19,"x_max":476,"o":"m 476 842 l 342 842 l 438 746 l 382 692 l 286 788 l 286 651 l 210 651 l 210 786 l 114 692 l 58 746 l 154 842 l 19 842 l 19 919 l 154 919 l 58 1015 l 114 1069 l 210 974 l 210 1108 l 286 1108 l 286 974 l 382 1069 l 438 1014 l 342 919 l 476 919 l 476 842 z "},"/":{"ha":1047,"x_min":4,"x_max":1043,"o":"m 1043 1111 l 267 0 l 4 0 l 781 1111 l 1043 1111 z "},"+":{"ha":733,"x_min":11,"x_max":722,"o":"m 722 461 l 464 461 l 464 203 l 269 203 l 269 461 l 11 461 l 11 656 l 269 656 l 269 914 l 464 914 l 464 656 l 722 656 l 722 461 z "},"-":{"ha":674,"x_min":39,"x_max":635,"o":"m 635 461 l 39 461 l 39 656 l 635 656 l 635 461 z "},"£":{"ha":743,"x_min":22,"x_max":714,"o":"m 319 214 l 646 214 l 646 0 l 106 0 l 106 419 l 22 419 l 22 614 l 106 614 l 106 692 q 138 856 106 779 q 228 989 171 932 q 361 1078 285 1046 q 524 1111 438 1111 q 714 1065 626 1111 l 617 875 q 572 892 594 886 q 524 897 549 897 q 444 881 482 897 q 379 838 407 865 q 335 772 351 810 q 319 692 319 735 l 319 614 l 615 614 l 421 419 l 319 419 l 319 214 z "},"'":{"ha":311,"x_min":39,"x_max":311,"o":"m 39 839 l 39 1111 l 311 1111 l 39 839 z "},"?":{"ha":718,"x_min":0,"x_max":618,"o":"m 161 214 l 375 214 l 375 0 l 161 214 m 382 325 l 168 325 l 168 638 l 275 638 q 326 648 301 638 q 367 676 350 658 q 395 717 385 693 q 406 768 406 740 q 395 818 406 794 q 367 859 385 842 q 326 887 350 876 q 275 897 301 897 q 171 846 210 897 l 0 974 q 121 1075 49 1039 q 275 1111 193 1111 q 408 1084 346 1111 q 517 1010 471 1057 q 591 901 564 964 q 618 768 618 839 q 601 659 618 711 q 552 564 583 607 q 477 489 521 521 q 382 440 433 457 l 382 325 z "},"!":{"ha":275,"x_min":24,"x_max":238,"o":"m 24 214 l 238 214 l 238 0 l 24 214 m 238 324 l 24 324 l 24 1111 l 238 1111 l 238 324 z "},",":{"ha":310,"x_min":0,"x_max":272,"o":"m 0 189 l 272 189 l 272 -83 l 0 189 z "},".":{"ha":267,"x_min":26,"x_max":240,"o":"m 240 107 q 209 31 240 63 q 133 0 178 0 q 58 31 89 0 q 26 107 26 63 q 58 183 26 151 q 133 214 89 214 q 209 183 178 214 q 240 107 240 151 z "},"@":{"ha":1244,"x_min":0,"x_max":1194,"o":"m 597 1111 q 829 1064 721 1111 q 1019 935 938 1017 q 1147 746 1100 854 q 1194 514 1194 638 q 1100 240 1194 322 q 1028 199 1064 207 q 972 190 992 190 l 963 190 q 800 260 863 190 q 766 313 779 285 q 745 371 753 342 q 735 427 738 400 q 733 475 733 454 q 733 501 733 490 q 735 518 733 511 l 735 556 q 723 614 735 586 q 691 663 711 642 q 643 695 671 683 q 583 707 615 707 q 524 695 551 707 q 476 663 497 683 q 444 614 456 642 q 432 556 432 586 q 444 497 432 524 q 476 449 456 469 q 524 416 497 428 q 583 404 551 404 l 738 404 l 597 264 l 583 264 q 471 287 524 264 q 378 349 418 310 q 316 442 339 389 q 293 556 293 494 q 316 668 293 615 q 378 760 339 721 q 471 823 418 800 q 583 846 524 846 q 697 823 643 846 q 790 760 750 800 q 852 668 829 721 q 875 556 875 615 l 875 506 q 873 490 874 499 q 872 471 872 482 q 879 408 872 443 q 906 353 886 374 q 925 338 913 346 q 965 329 938 329 l 972 329 q 988 332 976 329 q 1010 346 999 335 q 1043 410 1032 367 q 1054 514 1054 453 q 1018 692 1054 608 q 920 837 982 775 q 775 935 858 899 q 597 971 692 971 q 419 935 503 971 q 274 837 336 899 q 175 692 211 775 q 139 514 139 608 q 175 336 139 419 q 274 190 211 253 q 419 92 336 128 q 597 56 503 56 q 730 76 665 56 q 851 133 794 96 l 929 17 q 770 -58 854 -32 q 597 -83 686 -83 q 365 -36 474 -83 q 176 92 257 11 q 47 282 94 174 q 0 514 0 390 q 47 746 0 638 q 176 935 94 854 q 365 1064 257 1017 q 597 1111 474 1111 z "},"−":{"ha":674,"x_min":39,"x_max":635,"o":"m 635 461 l 39 461 l 39 656 l 635 656 l 635 461 z "}}}
